<svg width="110" height="17" viewBox="0 0 110 17" fill="none" xmlns="http://www.w3.org/2000/svg">
<path d="M10.952 3.584V0.199999H0.92V17H4.568V10.568H10.328V7.28H4.568V3.584H10.952ZM23.7753 17H27.7113L20.9193 0.199999H17.4873L10.9113 17H14.7513L15.9033 13.808H22.5993L23.7753 17ZM19.2393 4.64L21.4473 10.64H17.0553L19.2393 4.64ZM39.9459 8.144C40.5219 7.736 41.0019 7.208 41.3379 6.56C41.6739 5.936 41.8419 5.24 41.8419 4.52C41.8419 3.296 41.3619 2.264 40.4019 1.448C39.4419 0.631999 38.2419 0.199999 36.8019 0.199999H29.8419V17H36.9939C38.4339 17 39.6819 16.544 40.7139 15.584C41.7459 14.648 42.2739 13.496 42.2739 12.152C42.2739 11.264 42.0579 10.472 41.6499 9.776C41.2419 9.08 40.6659 8.528 39.9459 8.144ZM38.3139 5.096C38.3139 5.624 38.1459 6.056 37.8099 6.392C37.4739 6.728 37.0179 6.872 36.4419 6.872H33.4179V3.296H36.4419C36.7299 3.296 36.9699 3.344 37.2099 3.44C37.4499 3.536 37.6419 3.656 37.8099 3.8C37.9539 3.968 38.0739 4.16 38.1699 4.376C38.2659 4.592 38.3139 4.832 38.3139 5.096ZM36.6339 13.664H33.4179V9.896H36.6339C37.2099 9.896 37.6899 10.088 38.0739 10.424C38.4339 10.784 38.6259 11.24 38.6259 11.768C38.6259 12.344 38.4339 12.8 38.0739 13.136C37.6899 13.496 37.2099 13.664 36.6339 13.664Z" fill="#222222"/>
<path d="M65.8323 17L63.2163 0.199999H59.5683L55.0083 10.496L50.4723 0.199999H46.8243L44.1843 17H47.9043L49.5603 6.032L54.5763 16.976H55.4643L60.4803 6.032L62.1363 17H65.8323ZM72.2789 13.616V10.16H78.0869V6.872H72.2789V3.56H78.7109V0.199999H68.6309V17H78.9749V13.616H72.2789ZM93.6292 0.199999H80.6452V3.584H85.3012V17H88.9492V3.584H93.6292V0.199999ZM105.596 17H109.532L102.74 0.199999H99.3076L92.7316 17H96.5716L97.7236 13.808H104.42L105.596 17ZM101.06 4.64L103.268 10.64H98.8756L101.06 4.64Z" fill="url(#paint0_linear_203_80)"/>
<defs>
<linearGradient id="paint0_linear_203_80" x1="54.5" y1="-5" x2="54.5" y2="26" gradientUnits="userSpaceOnUse">
<stop stop-color="#9C83FF"/>
<stop offset="1" stop-color="#FF64F9"/>
</linearGradient>
</defs>
</svg>
