<svg width="272" height="298" viewBox="0 0 272 298" fill="none" xmlns="http://www.w3.org/2000/svg">
<path d="M52.9562 70.7681L48.6261 75.0983L52.9562 79.4284L57.2863 75.0983L52.9562 70.7681ZM52.9562 112.1L53.5409 112.569C53.6479 112.436 53.7062 112.27 53.7062 112.1H52.9562ZM34.4985 135.073L40.5861 134.409L39.9227 128.322L33.835 128.985L34.4985 135.073ZM55.5302 131.685L49.4742 132.593L50.3822 138.649L56.4382 137.741L55.5302 131.685ZM64.6444 213.765V207.641H58.5207V213.765H64.6444ZM49.6702 198.791H48.9202C48.9202 198.99 48.9993 199.181 49.1399 199.321L49.6702 198.791ZM57.6268 191.814V197.937H63.7506V191.814H57.6268ZM73.383 207.57H74.133C74.133 207.371 74.054 207.18 73.9134 207.04L73.383 207.57ZM73.383 234.637L77.7132 230.307L73.383 225.977L69.0529 230.307L73.383 234.637ZM109.161 219.292L104.83 223.622L109.161 227.952L113.491 223.622L109.161 219.292ZM109.161 241.997L108.807 242.658L108.808 242.658L109.161 241.997ZM123.696 225.977L119.366 230.307L123.696 234.637L128.026 230.307L123.696 225.977ZM123.696 261.767L123.347 262.432C123.58 262.553 123.859 262.545 124.084 262.409C124.308 262.273 124.446 262.03 124.446 261.767H123.696ZM86.9009 242.463L88.7236 248.309L94.5698 246.486L92.7471 240.64L86.9009 242.463ZM135.025 227.642L130.695 231.972L135.025 236.303L139.355 231.972L135.025 227.642ZM135.025 267.608L139.355 263.278L135.025 258.947L130.695 263.278L135.025 267.608ZM49.6702 163.458L45.3401 167.789L49.6702 172.119L54.0004 167.789L49.6702 163.458ZM28.8408 167.789V168.539C29.0787 168.539 29.3025 168.426 29.4439 168.234L28.8408 167.789ZM0.913012 167.789L5.24314 172.119L9.57327 167.789L5.24314 163.458L0.913012 167.789ZM120.056 82.8716L119.174 76.8118L113.114 77.6943L113.996 83.7541L120.056 82.8716ZM76.6449 50.4971L76.1809 51.0863C76.186 51.0904 76.1912 51.0943 76.1965 51.0983L76.6449 50.4971ZM76.6449 16.7195L72.3148 21.0496L76.6449 25.3798L80.975 21.0496L76.6449 16.7195ZM103.384 21.0496L103.634 21.7571C103.934 21.6514 104.134 21.3678 104.134 21.0496H103.384ZM103.384 6.22676L99.0544 10.5569L103.384 14.887L107.715 10.5569L103.384 6.22676ZM63.4335 40.093L64.1564 46.1739L70.2373 45.451L69.5144 39.3701L63.4335 40.093ZM94.0154 233.886H93.2654C93.2654 234.163 93.4175 234.417 93.6613 234.547L94.0154 233.886ZM94.0154 211.688L89.6852 216.018L94.0154 220.349L98.3455 216.018L94.0154 211.688ZM108.545 74.2869L108.097 74.8882L108.545 74.2869ZM97.6302 77.5679L96.5431 71.5415L90.5167 72.6286L91.6038 78.655L97.6302 77.5679ZM66.6728 56.0726L67.7599 62.099L73.7864 61.0119L72.6993 54.9854L66.6728 56.0726ZM63.1918 69.384L62.7899 70.0172C62.91 70.0934 63.0495 70.134 63.1918 70.134V69.384ZM29.7822 48.1765L31.1174 54.1529L37.0938 52.8177L35.7586 46.8413L29.7822 48.1765ZM52.2062 75.0983V112.1H53.7062V75.0983H52.2062ZM52.3715 111.63L36.6259 131.227L37.7952 132.167L53.5409 112.569L52.3715 111.63ZM62.1129 210.173L50.2006 198.261L49.1399 199.321L61.0522 211.234L62.1129 210.173ZM60.1584 195.406L72.8527 208.1L73.9134 207.04L61.219 194.345L60.1584 195.406ZM72.633 207.57V230.307H74.133V207.57H72.633ZM108.411 223.622V241.997H109.911V223.622H108.411ZM124.044 261.103L91.0838 243.811L90.3869 245.139L123.347 262.432L124.044 261.103ZM134.275 231.972V263.278H135.775V231.972H134.275ZM50.4202 198.791V167.789H48.9202V198.791H50.4202ZM28.8408 167.039H5.24314V168.539H28.8408V167.039ZM52.3531 134.721L28.2377 167.343L29.4439 168.234L53.5593 135.612L52.3531 134.721ZM104.134 21.0496V10.5569H102.634V21.0496H104.134ZM77.1089 49.9078L67.2994 42.1828L66.3714 43.3612L76.1809 51.0863L77.1089 49.9078ZM122.946 230.307V249.737H124.446V230.307H122.946ZM122.946 249.737V261.767H124.446V249.737H122.946ZM108.808 242.658L123.343 250.399L124.048 249.075L109.513 241.335L108.808 242.658ZM109.515 241.335L94.3694 233.225L93.6613 234.547L108.807 242.658L109.515 241.335ZM94.7654 233.886V216.018H93.2654V233.886H94.7654ZM77.3949 50.4971V30.4655H75.8949V50.4971H77.3949ZM77.3949 30.4655V21.0496H75.8949V30.4655H77.3949ZM76.894 31.1729L103.634 21.7571L103.135 20.3422L76.3958 29.758L76.894 31.1729ZM117.033 79.6817L108.993 73.6857L108.097 74.8882L116.137 80.8842L117.033 79.6817ZM108.993 73.6857L77.0932 49.8958L76.1965 51.0983L108.097 74.8882L108.993 73.6857ZM94.5012 74.4822L86.2715 68.7679L85.416 70L93.6457 75.7143L94.5012 74.4822ZM86.2715 68.7679L70.6574 57.9262L69.8019 59.1583L85.416 70L86.2715 68.7679ZM85.8438 68.634H63.1918V70.134H85.8438V68.634ZM63.5937 68.7508L33.8399 49.8639L33.036 51.1303L62.7899 70.0172L63.5937 68.7508Z" fill="white"/>
<path d="M216.983 70.7681L221.313 75.0983L216.983 79.4284L212.653 75.0983L216.983 70.7681ZM216.983 112.1L216.398 112.569C216.291 112.436 216.233 112.27 216.233 112.1H216.983ZM235.441 135.073L229.353 134.409L230.017 128.322L236.104 128.985L235.441 135.073ZM214.093 131.942L220.208 132.276L219.873 138.391L213.759 138.057L214.093 131.942ZM205.295 213.765L205.295 207.641H211.419L211.419 213.765H205.295ZM220.269 198.791H221.019C221.019 198.99 220.94 199.181 220.799 199.321L220.269 198.791ZM212.312 191.814V197.937H206.189V191.814H212.312ZM196.556 207.57H195.806C195.806 207.371 195.885 207.18 196.026 207.04L196.556 207.57ZM196.556 297.797L192.226 293.467L196.556 289.137L200.886 293.467L196.556 297.797ZM160.779 219.292L165.109 223.622L160.779 227.952L156.449 223.622L160.779 219.292ZM160.779 241.997L161.133 242.658L161.131 242.658L160.779 241.997ZM146.244 225.977L150.574 230.307L146.244 234.637L141.913 230.307L146.244 225.977ZM146.244 261.767L146.592 262.432C146.36 262.553 146.08 262.545 145.856 262.409C145.631 262.273 145.494 262.03 145.494 261.767H146.244ZM183.038 242.463L181.216 248.309L175.369 246.486L177.192 240.64L183.038 242.463ZM220.269 163.458L224.599 167.789L220.269 172.119L215.939 167.789L220.269 163.458ZM235.621 155.961L229.506 155.626L229.841 149.512L235.955 149.846L235.621 155.961ZM149.883 82.8716L150.766 76.8118L156.825 77.6943L155.943 83.7541L149.883 82.8716ZM193.294 50.4971L193.758 51.0863C193.753 51.0904 193.748 51.0943 193.743 51.0983L193.294 50.4971ZM193.294 16.7195L197.625 21.0496L193.294 25.3798L188.964 21.0496L193.294 16.7195ZM166.555 21.0496L166.306 21.7571C166.006 21.6514 165.805 21.3678 165.805 21.0496H166.555ZM166.555 6.22676L170.885 10.5569L166.555 14.887L162.225 10.5569L166.555 6.22676ZM206.506 40.093L205.783 46.1739L199.702 45.451L200.425 39.3701L206.506 40.093ZM175.924 233.886H176.674C176.674 234.163 176.522 234.417 176.278 234.547L175.924 233.886ZM175.924 211.688L180.254 216.018L175.924 220.349L171.594 216.018L175.924 211.688ZM161.394 74.2869L161.843 74.8882L161.394 74.2869ZM172.309 77.5679L173.396 71.5415L179.423 72.6286L178.336 78.655L172.309 77.5679ZM203.266 56.0726L202.179 62.099L196.153 61.0119L197.24 54.9854L203.266 56.0726ZM206.747 69.384L207.149 70.0172C207.029 70.0934 206.89 70.134 206.747 70.134V69.384ZM236.501 50.4971L236.099 49.8639C236.22 49.7876 236.359 49.7471 236.501 49.7471V50.4971ZM271.087 50.4971L266.757 54.8272L262.427 50.4971L266.757 46.1669L271.087 50.4971ZM258.904 36.8631L258.373 36.3328C258.514 36.1921 258.705 36.1131 258.904 36.1131V36.8631ZM271.087 36.8631L266.757 41.1933L262.427 36.8631L266.757 32.533L271.087 36.8631ZM172.167 274.26L173.614 268.31L179.565 269.757L178.117 275.707L172.167 274.26ZM217.733 75.0983V112.1H216.233V75.0983H217.733ZM217.568 111.63L233.313 131.227L232.144 132.167L216.398 112.569L217.568 111.63ZM207.826 210.173L219.739 198.261L220.799 199.321L208.887 211.234L207.826 210.173ZM209.781 195.406L197.087 208.1L196.026 207.04L208.72 194.345L209.781 195.406ZM161.529 223.622V241.997H160.029V223.622H161.529ZM145.895 261.103L178.855 243.811L179.552 245.139L146.592 262.432L145.895 261.103ZM219.519 198.791V167.789H221.019V198.791H219.519ZM217.542 134.666L233.289 152.236L232.172 153.237L216.425 135.667L217.542 134.666ZM165.805 21.0496V10.5569H167.305V21.0496H165.805ZM192.83 49.9078L202.64 42.1828L203.568 43.3612L193.758 51.0863L192.83 49.9078ZM146.994 230.307V249.737H145.494V230.307H146.994ZM146.994 249.737V261.767H145.494V249.737H146.994ZM161.131 242.658L146.596 250.399L145.891 249.075L160.426 241.335L161.131 242.658ZM160.425 241.335L175.57 233.225L176.278 234.547L161.133 242.658L160.425 241.335ZM175.174 233.886V216.018H176.674V233.886H175.174ZM192.544 50.4971V30.4655H194.044V50.4971H192.544ZM192.544 30.4655V21.0496H194.044V30.4655H192.544ZM193.045 31.1729L166.306 21.7571L166.804 20.3422L193.544 29.758L193.045 31.1729ZM152.906 79.6817L160.946 73.6857L161.843 74.8882L153.803 80.8842L152.906 79.6817ZM160.946 73.6857L192.846 49.8958L193.743 51.0983L161.843 74.8882L160.946 73.6857ZM175.438 74.4822L183.668 68.7679L184.523 70L176.294 75.7143L175.438 74.4822ZM183.668 68.7679L199.282 57.9262L200.137 59.1583L184.523 70L183.668 68.7679ZM184.096 68.634H206.747V70.134H184.096V68.634ZM206.346 68.7508L236.099 49.8639L236.903 51.1303L207.149 70.0172L206.346 68.7508ZM236.501 49.7471H245.27V51.2471H236.501V49.7471ZM245.27 49.7471H266.757V51.2471H245.27V49.7471ZM244.739 49.9667L258.373 36.3328L259.434 37.3935L245.8 51.0274L244.739 49.9667ZM258.904 36.1131H266.757V37.6131H258.904V36.1131ZM197.306 207.57V259.413H195.806V207.57H197.306ZM197.306 259.413V293.467H195.806V259.413H197.306ZM196.946 260.054L176.256 272.649L175.476 271.368L196.166 258.772L196.946 260.054Z" fill="white"/>
<path d="M64.8102 95.3022L62.2998 108.605L69.2039 116.421L77.2065 120.246L108.746 124.736L122.711 103.949L116.906 95.3022L75.3235 84.8259L64.8102 95.3022Z" fill="white"/>
<path d="M206.696 95.3022L209.227 108.605L202.268 116.421L194.202 120.246L162.414 124.736L148.339 103.949L154.19 95.3022L196.1 84.8259L206.696 95.3022Z" fill="white"/>
<path fill-rule="evenodd" clip-rule="evenodd" d="M83.4928 158.067C86.2162 158.067 88.4239 155.486 88.4239 152.302C88.4239 149.118 86.2162 146.537 83.4928 146.537C80.7695 146.537 78.5618 149.118 78.5618 152.302C78.5618 155.486 80.7695 158.067 83.4928 158.067ZM82.4858 155.905C83.8407 155.905 84.939 154.292 84.939 152.302C84.939 150.312 83.8407 148.699 82.4858 148.699C81.131 148.699 80.0327 150.312 80.0327 152.302C80.0327 154.292 81.131 155.905 82.4858 155.905Z" fill="white"/>
<path fill-rule="evenodd" clip-rule="evenodd" d="M187.592 158.067C184.869 158.067 182.661 155.486 182.661 152.302C182.661 149.118 184.869 146.537 187.592 146.537C190.316 146.537 192.523 149.118 192.523 152.302C192.523 155.486 190.316 158.067 187.592 158.067ZM188.599 155.905C187.244 155.905 186.145 154.292 186.145 152.302C186.145 150.312 187.244 148.699 188.599 148.699C189.953 148.699 191.052 150.312 191.052 152.302C191.052 154.292 189.953 155.905 188.599 155.905Z" fill="white"/>
<path fill-rule="evenodd" clip-rule="evenodd" d="M113.739 3.82776V36.148L135.059 54.6299L156.38 36.148V3.82776C154.343 2.72934 147.228 0.532513 135.06 0.532471M135.059 48.4151L141.669 42.6491H128.45L135.059 48.4151Z" fill="white"/>
<path d="M113.739 3.82776C115.776 2.72934 122.891 0.532513 135.06 0.532471L113.739 3.82776Z" fill="white"/>
<path d="M91.8791 44.6802L91.0452 36.1481L112.382 29.0918V36.7115L135.059 56.5524L157.737 36.7115V29.0918L179.074 36.1481L178.24 44.6802L135.06 79.1793L91.8791 44.6802Z" fill="white"/>
<path fill-rule="evenodd" clip-rule="evenodd" d="M136.348 194.919L149.652 196.769L156.443 185.292C159.599 180.293 162.686 182.11 161.569 187.573C160.451 193.036 158.69 196.439 158.045 198.044L165.562 202.986L173.996 189.927C177.891 183.991 182.156 188.006 180.489 192.334C178.575 197.302 179.306 194.829 178.775 196.769L183.445 202.099L190.052 202.986L195.519 192.722L197.911 182.331L203.378 173.46L212.718 163.449L218.528 149.003L211.361 143.314L206.634 136.465L203.378 123.114L189.085 125.105L191.632 144.386C195.248 145.285 196.783 151.019 194.92 154.929L190.439 161.38L178.468 165.499C178.344 165.536 178.214 165.57 178.08 165.606C177.112 165.86 175.942 166.167 175.524 167.81C174.936 170.121 173.603 174.241 171.763 178.468C169.943 182.648 164.886 180.169 165.65 175.068C165.885 174.153 170.469 154.929 170.705 153.621C170.805 153.063 171.128 151.908 171.48 150.929C171.315 150.94 171.118 150.952 170.893 150.966C170.195 151.008 169.233 151.059 168.184 151.093C166.117 151.16 163.606 151.166 162.129 150.878C159.098 150.287 156.292 147.796 155.261 144.876C154.699 143.283 153.061 140.14 151.208 137.36C150.284 135.974 149.327 134.709 148.446 133.787C148.005 133.326 147.599 132.967 147.241 132.723C146.872 132.472 146.615 132.385 146.46 132.374C145.995 132.34 145.331 132.318 144.539 132.305C141.898 132.26 137.972 132.317 135.691 132.367C135.587 132.375 135.469 132.378 135.333 132.375L135.303 132.375L135.303 132.374C133.095 132.323 128.817 132.258 126.033 132.305C125.241 132.318 124.577 132.34 124.111 132.374C123.957 132.385 123.699 132.472 123.331 132.723C122.972 132.967 122.567 133.326 122.126 133.787C121.245 134.709 120.287 135.974 119.364 137.36C117.51 140.14 115.872 143.283 115.31 144.876C114.28 147.796 111.474 150.287 108.443 150.878C106.966 151.166 104.455 151.16 102.388 151.093C101.338 151.059 100.377 151.008 99.678 150.966C99.5651 150.959 99.459 150.952 99.3604 150.946C99.7099 151.921 100.03 153.066 100.129 153.621C100.365 154.929 104.949 174.153 105.184 175.068C105.948 180.169 100.891 182.648 99.0715 178.469C97.2312 174.241 95.8977 170.121 95.3099 167.81C94.8921 166.167 93.7224 165.86 92.7542 165.606C92.6201 165.57 92.4897 165.536 92.3658 165.499L80.3945 161.38L75.9142 154.929C74.0981 151.119 75.5097 145.576 78.9295 144.465L81.5095 124.932L68.4555 123.114L65.2 136.465L60.4721 143.314L53.3059 149.003L59.115 163.449L68.4555 173.46L73.9227 182.331L76.3145 192.722L81.7819 202.986L88.3884 202.099L93.0585 196.77C92.5271 194.829 92.1999 193.39 90.2862 188.422C88.619 184.094 92.8834 180.078 96.7786 186.015L98.8674 188.667L106.271 202.986L113.789 198.044C113.143 196.439 112.905 195.479 111.083 191.829C109.26 188.179 113.053 184.549 116.209 189.548L122.182 196.77L135.485 194.92L136.348 194.919ZM135.916 182.322C137.71 182.322 141.923 181.637 144.424 178.897C146.941 176.14 151.265 170.437 154.311 166.419C155.049 165.445 155.712 164.571 156.256 163.861C159.046 160.223 157.699 155.567 154.525 153.053C151.35 150.538 150.196 148.772 148.801 143.314C147.573 138.508 145.077 137.229 143.972 136.663C143.823 136.586 143.699 136.522 143.607 136.465C142.991 136.08 138.224 135.948 135.917 135.93C133.61 135.948 128.842 136.08 128.227 136.465C128.135 136.522 128.011 136.586 127.861 136.663C126.757 137.228 124.261 138.508 123.032 143.314C121.638 148.772 120.483 150.538 117.309 153.053C114.135 155.567 112.788 160.223 115.577 163.861C116.12 164.568 116.78 165.439 117.515 166.409L117.522 166.418C120.568 170.436 124.893 176.14 127.409 178.897C129.91 181.636 134.122 182.322 135.916 182.322Z" fill="white"/>
<path d="M82.9952 125.139L111.785 129.149L126.268 106.589L135.916 107.413L145.565 106.589L160.049 129.149L187.599 125.312L190.106 144.288C185.526 144.567 176.364 146.582 172.291 149.305C172.192 149.372 172.074 149.548 171.949 149.795L171.918 149.394L171.899 149.395L171.842 149.4L171.726 149.408L171.62 149.415C171.427 149.429 171.147 149.448 170.803 149.469C170.113 149.51 169.167 149.561 168.135 149.594C166.04 149.662 163.699 149.656 162.416 149.405C159.925 148.92 157.536 146.814 156.676 144.377C156.056 142.621 154.345 139.362 152.456 136.528C151.508 135.107 150.496 133.762 149.53 132.751C149.048 132.246 148.561 131.807 148.085 131.483C147.62 131.167 147.102 130.916 146.567 130.877C146.06 130.841 145.363 130.818 144.564 130.805C141.743 130.757 137.494 130.824 135.286 130.875C133.078 130.824 128.829 130.757 126.007 130.805C125.209 130.818 124.512 130.841 124.005 130.877C123.47 130.916 122.952 131.167 122.486 131.483C122.01 131.807 121.524 132.246 121.041 132.751C120.075 133.762 119.063 135.107 118.116 136.528C116.226 139.362 114.515 142.621 113.896 144.377C113.035 146.814 110.646 148.92 108.156 149.405C106.872 149.656 104.531 149.662 102.436 149.594C101.405 149.561 100.458 149.51 99.7688 149.469C99.4243 149.448 99.1447 149.429 98.9515 149.415C98.8549 149.409 98.78 149.403 98.7294 149.4L98.6721 149.395L98.6534 149.394L98.6519 149.412C98.6136 149.365 98.577 149.329 98.5425 149.305C94.3915 146.53 84.9514 144.489 80.4677 144.274L82.9952 125.139Z" fill="white"/>
<path d="M139.396 138.437C142.163 138.437 143.969 139.049 145.176 143.285C146.383 147.521 147.332 150.327 149.35 152.012C151.369 153.696 152.305 155.864 150.188 157.971C149.661 158.495 147.881 156.77 146.237 155.176C145.267 154.236 144.344 153.341 143.754 152.981C142.481 152.206 137.999 152.012 135.916 152.012C133.833 152.012 129.35 152.206 128.077 152.981C127.487 153.341 126.564 154.236 125.594 155.176C123.95 156.77 122.17 158.495 121.644 157.971C119.526 155.864 120.463 153.696 122.481 152.012C124.499 150.328 125.448 147.521 126.655 143.285C127.862 139.049 129.668 138.437 132.435 138.437L139.396 138.437Z" fill="white"/>
</svg>
